<?xml version="1.0" encoding="UTF-8" standalone="no"?>
<!-- Created with Inkscape (http://www.inkscape.org/) -->

<svg
   width="86mm"
   height="39mm"
   viewBox="0 0 86 39"
   version="1.1"
   id="svg1"
   xml:space="preserve"
   inkscape:version="1.3.2 (091e20e, 2023-11-25, custom)"
   sodipodi:docname="Logo_PLCM.svg"
   xmlns:inkscape="http://www.inkscape.org/namespaces/inkscape"
   xmlns:sodipodi="http://sodipodi.sourceforge.net/DTD/sodipodi-0.dtd"
   xmlns="http://www.w3.org/2000/svg"
   xmlns:svg="http://www.w3.org/2000/svg"><sodipodi:namedview
     id="namedview1"
     pagecolor="#ffffff"
     bordercolor="#000000"
     borderopacity="0.25"
     inkscape:showpageshadow="2"
     inkscape:pageopacity="0.0"
     inkscape:pagecheckerboard="0"
     inkscape:deskcolor="#d1d1d1"
     inkscape:document-units="mm"
     inkscape:zoom="1.4805976"
     inkscape:cx="137.7822"
     inkscape:cy="170.53924"
     inkscape:window-width="1920"
     inkscape:window-height="1009"
     inkscape:window-x="1912"
     inkscape:window-y="415"
     inkscape:window-maximized="1"
     inkscape:current-layer="layer1" /><defs
     id="defs1"><clipPath
       clipPathUnits="userSpaceOnUse"
       id="clipEmfPath1"><path
         d="M 0,0 H 310.85161 V 131.92005 H 0 Z"
         id="path1" /></clipPath><pattern
       id="EMFhbasepattern"
       patternUnits="userSpaceOnUse"
       width="6"
       height="6"
       x="0"
       y="0" /></defs><g
     inkscape:label="Ebene 1"
     inkscape:groupmode="layer"
     id="layer1"><g
       id="g1"
       transform="matrix(0.26458333,0,0,0.26458333,-1.1618191,1.1914151)"><g
         id="g2">
	<path
   class="st0"
   d="m 138.7,80.6 c 1.1,-8.1 0.7,-16.4 -1.3,-24.2 C 135.4,48.5 131.8,41.2 127,34.7 117.4,21.7 102.8,12.8 86.9,10.3 71.1,7.6 54.4,11.5 41.2,20.8 34.6,25.4 28.9,31.3 24.5,38.1 20.1,45 17,52.7 15.6,60.7 c -1.5,8 -1.3,16.4 0.4,24.4 1.8,8 5.1,15.8 9.8,22.5 4.8,6.8 10.9,12.6 17.9,17 7.1,4.4 15,7.4 23.2,8.7 3.3,0.5 6.6,0.8 10,0.8 5,0 10,-0.6 14.8,-1.8 8.1,-2 15.7,-5.6 22.4,-10.5 0.1,-0.1 0.1,-0.1 0.2,-0.2 l 15.4,-16.8 c 0.3,-0.4 0.6,-0.9 0.8,-1.3 4.3,-6.9 7,-14.8 8.2,-22.9 z"
   id="path1-0" />
	
		<linearGradient
   id="SVGID_1_"
   gradientUnits="userSpaceOnUse"
   x1="-262.4664"
   y1="367.6499"
   x2="-261.4664"
   y2="367.6499"
   gradientTransform="matrix(94.7998,-94.7998,-94.7998,-94.7998,59763.918,10088.703)">
		<stop
   offset="0"
   style="stop-color:#0D9AD7"
   id="stop1" />
		<stop
   offset="1"
   style="stop-color:#055AA6"
   id="stop2" />
	</linearGradient>
	<path
   class="st1"
   d="m 114.1,121.9 c -6.7,4.9 -14.3,8.5 -22.4,10.5 -4.8,1.2 -9.8,1.8 -14.8,1.8 -3.3,0 -6.7,-0.3 -10,-0.8 -8.2,-1.4 -16.1,-4.3 -23.2,-8.7 -7,-4.4 -13.1,-10.3 -17.9,-17 C 21,100.9 17.7,93.2 16,85.2 14.2,77.2 14.1,68.8 15.6,60.8 17.1,52.8 20.1,45.1 24.5,38.2 28.9,31.4 34.6,25.5 41.2,20.9 54.4,11.6 71.1,7.7 86.9,10.4 c 15.8,2.5 30.5,11.4 40.1,24.4 4.8,6.5 8.4,13.9 10.4,21.7 2,7.8 2.5,16.1 1.3,24.2 -1.2,8.1 -3.9,16 -8.1,23 -0.3,0.4 -0.6,0.9 -0.8,1.3 v 4.3 c 1.1,-1.4 2.1,-2.8 3,-4.3 4.6,-7.2 7.8,-15.3 9.3,-23.8 1.5,-8.5 1.4,-17.3 -0.5,-25.8 -1.9,-8.5 -5.4,-16.6 -10.4,-23.8 -5,-7.1 -11.5,-13.3 -18.9,-17.9 C 104.8,9 96.5,5.9 87.8,4.5 84.4,3.9 81,3.7 77.5,3.7 h -0.4 c -5.2,0 -10.4,0.6 -15.4,1.8 -8.5,2.1 -16.6,5.9 -23.6,11.1 -7,5.2 -12.9,11.8 -17.4,19.3 -4.4,7.5 -7.3,15.8 -8.6,24.3 -1.2,8.5 -0.8,17.3 1.4,25.6 2.1,8.3 5.9,16.1 11,22.9 10.1,13.7 25.6,23.2 42.3,25.8 16.4,2.8 33.7,-1.1 47.5,-10.6 v -2.1 c -0.1,0 -0.1,0.1 -0.2,0.1 z"
   id="path2"
   style="fill:url(#SVGID_1_)" />
</g><path
         class="st2"
         d="m 116.7,123.7 v -23.4 c -0.3,0.7 -11.6,24.2 -11.6,24.2 0,0 -10.3,-23.5 -10.5,-24.2 V 77.4 c 0,0 10.5,24.9 10.8,25.8 0.3,-0.9 12,-25.8 12,-25.8 h 9.7 v 46.3 z"
         id="path3" /><path
         class="st2"
         d="m 51.4,26.8 h 20.8 c 12,0 16.2,7.5 16.2,14.9 0,6.9 -4.6,14.9 -16.2,14.9 H 61.9 V 73 H 51.4 Z m 26.1,14.9 c 0,-2.2 -1.2,-5.1 -5,-5.1 H 61.9 v 10.2 h 10.7 c 3.5,0 4.9,-2.6 4.9,-5.1"
         id="path4" /><polygon
         class="st2"
         points="127.2,62.9 127.2,73.1 94.6,73.1 94.6,26.8 105.1,26.8 105.1,62.9 "
         id="polygon4" /><path
         class="st2"
         d="m 71.1,77.4 c 6.4,0 11.2,2 15.6,6 -3.2,3.6 -6.1,6.5 -6.6,7 -2.4,-2.1 -5.5,-3.3 -8.7,-3.3 -7.3,0 -12.6,6 -12.6,13.2 0,7.1 5.4,13.1 12.7,13.1 3,0 6.3,-1.1 8.6,-3.1 0.8,0.8 5.7,6.1 6.6,7.1 -4.4,4.2 -9.9,6.2 -15.6,6.2 -12.9,0 -23.2,-10.2 -23.2,-23.1 0,-12.7 10.4,-23.1 23.2,-23.1"
         id="path5" /><g
         id="g14">
	<path
   class="st2"
   d="m 161.3,87.1 c 0,-0.2 0.2,-0.4 0.4,-0.4 h 1.4 c 0.2,0 0.4,0.2 0.4,0.4 v 12.4 h 5.7 c 0.2,0 0.4,0.2 0.4,0.4 v 1.2 c 0,0.2 -0.2,0.4 -0.4,0.4 h -7.5 c -0.2,0 -0.4,-0.2 -0.4,-0.4 z"
   id="path6" />
	<path
   class="st2"
   d="m 173.5,87.1 c 0,-0.2 0.2,-0.4 0.4,-0.4 h 1.4 c 0.2,0 0.4,0.2 0.4,0.4 v 14 c 0,0.2 -0.2,0.4 -0.4,0.4 h -1.4 c -0.2,0 -0.4,-0.2 -0.4,-0.4 z"
   id="path7" />
	<path
   class="st2"
   d="m 181.5,87.1 c 0,-0.2 0.2,-0.4 0.4,-0.4 h 8.5 c 0.2,0 0.4,0.2 0.4,0.4 v 1.2 c 0,0.2 -0.2,0.4 -0.4,0.4 h -6.7 v 4.9 h 5.6 c 0.2,0 0.4,0.2 0.4,0.4 v 1.2 c 0,0.2 -0.2,0.4 -0.4,0.4 h -5.6 v 5.6 c 0,0.2 -0.2,0.4 -0.4,0.4 h -1.4 c -0.2,0 -0.4,-0.2 -0.4,-0.4 z"
   id="path8" />
	<path
   class="st2"
   d="m 195.2,87.1 c 0,-0.2 0.2,-0.4 0.4,-0.4 h 8.5 c 0.2,0 0.4,0.2 0.4,0.4 v 1.2 c 0,0.2 -0.2,0.4 -0.4,0.4 h -6.7 V 93 h 5.6 c 0.2,0 0.4,0.2 0.4,0.4 v 1.2 c 0,0.2 -0.2,0.4 -0.4,0.4 h -5.6 v 4.5 h 6.7 c 0.2,0 0.4,0.2 0.4,0.4 v 1.2 c 0,0.2 -0.2,0.4 -0.4,0.4 h -8.5 c -0.2,0 -0.4,-0.2 -0.4,-0.4 z"
   id="path9" />
	<path
   class="st2"
   d="m 222.2,86.5 c 2.1,0 3.7,0.7 5.1,2 0.2,0.2 0.2,0.4 0,0.6 l -0.9,1 c -0.1,0.2 -0.3,0.2 -0.5,0 -1,-0.9 -2.3,-1.4 -3.7,-1.4 -3,0 -5.3,2.5 -5.3,5.5 0,3 2.3,5.5 5.3,5.5 1.5,0 2.6,-0.6 3.6,-1.4 0.2,-0.1 0.4,-0.1 0.5,0 l 1,1 c 0.2,0.1 0.1,0.4 0,0.6 -1.4,1.4 -3.3,2 -5.1,2 -4.2,0 -7.6,-3.4 -7.6,-7.6 0,-4.4 3.4,-7.8 7.6,-7.8 z"
   id="path10" />
	<path
   class="st2"
   d="M 234.9,94.4 230,87.3 c -0.2,-0.3 0,-0.6 0.3,-0.6 h 1.6 c 0.2,0 0.3,0.1 0.3,0.2 l 3.8,5.4 3.8,-5.4 c 0.1,-0.1 0.2,-0.2 0.3,-0.2 h 1.6 c 0.3,0 0.5,0.3 0.3,0.6 l -5,7 v 6.7 c 0,0.2 -0.2,0.4 -0.4,0.4 h -1.4 c -0.2,0 -0.4,-0.2 -0.4,-0.4 v -6.6 z"
   id="path11" />
	<path
   class="st2"
   d="m 252.1,86.5 c 2.1,0 3.7,0.7 5.1,2 0.2,0.2 0.2,0.4 0,0.6 l -0.9,1 c -0.1,0.2 -0.3,0.2 -0.5,0 -1,-0.9 -2.3,-1.4 -3.7,-1.4 -3,0 -5.3,2.5 -5.3,5.5 0,3 2.3,5.5 5.3,5.5 1.5,0 2.6,-0.6 3.6,-1.4 0.2,-0.1 0.4,-0.1 0.5,0 l 1,1 c 0.2,0.1 0.1,0.4 0,0.6 -1.4,1.4 -3.3,2 -5.1,2 -4.2,0 -7.6,-3.4 -7.6,-7.6 0,-4.4 3.4,-7.8 7.6,-7.8 z"
   id="path12" />
	<path
   class="st2"
   d="m 262,87.1 c 0,-0.2 0.2,-0.4 0.4,-0.4 h 1.4 c 0.2,0 0.4,0.2 0.4,0.4 v 12.4 h 5.7 c 0.2,0 0.4,0.2 0.4,0.4 v 1.2 c 0,0.2 -0.2,0.4 -0.4,0.4 h -7.5 c -0.2,0 -0.4,-0.2 -0.4,-0.4 z"
   id="path13" />
	<path
   class="st2"
   d="m 274.2,87.1 c 0,-0.2 0.2,-0.4 0.4,-0.4 h 8.5 c 0.2,0 0.4,0.2 0.4,0.4 v 1.2 c 0,0.2 -0.2,0.4 -0.4,0.4 h -6.7 V 93 h 5.6 c 0.2,0 0.4,0.2 0.4,0.4 v 1.2 c 0,0.2 -0.2,0.4 -0.4,0.4 h -5.6 v 4.5 h 6.7 c 0.2,0 0.4,0.2 0.4,0.4 v 1.2 c 0,0.2 -0.2,0.4 -0.4,0.4 h -8.5 c -0.2,0 -0.4,-0.2 -0.4,-0.4 z"
   id="path14" />
</g><g
         id="g24">
	<path
   class="st2"
   d="m 162.9,109 c 0,-0.2 0.2,-0.3 0.4,-0.3 h 0.3 c 0.1,0 0.3,0.1 0.4,0.2 l 4.4,10.8 h 0.1 l 4.4,-10.8 c 0,-0.1 0.2,-0.2 0.4,-0.2 h 0.3 c 0.2,0 0.3,0.1 0.4,0.3 l 2.6,14.2 c 0.1,0.3 -0.1,0.5 -0.4,0.5 h -1.4 c -0.2,0 -0.4,-0.1 -0.4,-0.3 l -1.6,-9.4 c 0,0 -0.1,0 -0.1,0 l -3.8,9.7 c 0,0.1 -0.2,0.2 -0.4,0.2 h -0.4 c -0.2,0 -0.3,-0.1 -0.4,-0.2 l -3.8,-9.7 c 0,0 -0.1,0 -0.1,0 l -1.5,9.4 c 0,0.1 -0.2,0.3 -0.4,0.3 h -1.4 c -0.3,0 -0.4,-0.2 -0.4,-0.5 z"
   id="path15" />
	<path
   class="st2"
   d="m 179.4,123.1 6.5,-14.2 c 0.1,-0.1 0.3,-0.2 0.4,-0.2 h 0.2 c 0.1,0 0.3,0.1 0.4,0.2 l 6.4,14.2 c 0.1,0.3 0,0.5 -0.4,0.5 h -1.3 c -0.3,0 -0.4,-0.1 -0.5,-0.3 l -1.3,-2.9 h -6.9 c -0.4,1 -0.9,1.9 -1.3,2.9 -0.1,0.1 -0.2,0.3 -0.5,0.3 h -1.3 c -0.4,0.1 -0.6,-0.2 -0.4,-0.5 z m 9.5,-4.4 -2.6,-5.8 h -0.1 l -2.6,5.8 z"
   id="path16" />
	<path
   class="st2"
   d="m 197,109.1 c 0,-0.2 0.2,-0.4 0.4,-0.4 h 0.5 l 9.2,10.6 v 0 -10 c 0,-0.2 0.2,-0.4 0.4,-0.4 h 1.4 c 0.2,0 0.4,0.2 0.4,0.4 v 14.2 c 0,0.2 -0.2,0.4 -0.4,0.4 h -0.5 L 199.2,113 v 0 10.3 c 0,0.2 -0.2,0.4 -0.4,0.4 h -1.3 c -0.2,0 -0.4,-0.2 -0.4,-0.4 v -14.2 z"
   id="path17" />
	<path
   class="st2"
   d="m 213.1,123.1 6.5,-14.2 c 0.1,-0.1 0.3,-0.2 0.4,-0.2 h 0.2 c 0.1,0 0.3,0.1 0.4,0.2 l 6.4,14.2 c 0.1,0.3 0,0.5 -0.4,0.5 h -1.3 c -0.3,0 -0.4,-0.1 -0.5,-0.3 l -1.3,-2.9 h -6.9 c -0.4,1 -0.9,1.9 -1.3,2.9 -0.1,0.1 -0.2,0.3 -0.5,0.3 h -1.3 c -0.3,0.1 -0.5,-0.2 -0.4,-0.5 z m 9.6,-4.4 -2.6,-5.8 H 220 l -2.6,5.8 z"
   id="path18" />
	<path
   class="st2"
   d="m 237.2,108.7 c 2,0 3.7,0.7 5.1,2 0.2,0.2 0.2,0.4 0,0.6 -0.3,0.3 -0.6,0.7 -1,1 -0.2,0.2 -0.3,0.2 -0.5,0 -1,-0.9 -2.3,-1.4 -3.6,-1.4 -3,0 -5.3,2.5 -5.3,5.5 0,2.9 2.3,5.5 5.3,5.5 1.8,0 3,-0.6 3.2,-0.7 v -2.4 h -2.1 c -0.2,0 -0.4,-0.2 -0.4,-0.4 v -1.2 c 0,-0.2 0.2,-0.4 0.4,-0.4 h 3.8 c 0.2,0 0.4,0.2 0.4,0.4 0,1.7 0,3.4 0,5.1 0,0.1 -0.1,0.3 -0.2,0.3 0,0 -2.2,1.4 -5.2,1.4 -4.2,0 -7.6,-3.4 -7.6,-7.6 0.1,-4.3 3.5,-7.7 7.7,-7.7 z"
   id="path19" />
	<path
   class="st2"
   d="m 247.6,109.3 c 0,-0.2 0.2,-0.4 0.4,-0.4 h 8.5 c 0.2,0 0.4,0.2 0.4,0.4 v 1.2 c 0,0.2 -0.2,0.4 -0.4,0.4 h -6.7 v 4.3 h 5.6 c 0.2,0 0.4,0.2 0.4,0.4 v 1.2 c 0,0.2 -0.2,0.4 -0.4,0.4 h -5.6 v 4.5 h 6.7 c 0.2,0 0.4,0.2 0.4,0.4 v 1.2 c 0,0.2 -0.2,0.4 -0.4,0.4 H 248 c -0.2,0 -0.4,-0.2 -0.4,-0.4 z"
   id="path20" />
	<path
   class="st2"
   d="m 263.4,109 c 0,-0.2 0.2,-0.3 0.4,-0.3 h 0.3 c 0.1,0 0.3,0.1 0.4,0.2 l 4.4,10.8 h 0.1 l 4.4,-10.8 c 0,-0.1 0.2,-0.2 0.4,-0.2 h 0.3 c 0.2,0 0.3,0.1 0.4,0.3 l 2.6,14.2 c 0.1,0.3 -0.1,0.5 -0.4,0.5 h -1.4 c -0.2,0 -0.4,-0.1 -0.4,-0.3 l -1.6,-9.4 c 0,0 -0.1,0 -0.1,0 l -3.8,9.7 c 0,0.1 -0.2,0.2 -0.4,0.2 h -0.4 c -0.2,0 -0.3,-0.1 -0.4,-0.2 l -3.8,-9.7 c 0,0 -0.1,0 -0.1,0 l -1.5,9.4 c 0,0.1 -0.2,0.3 -0.4,0.3 H 261 c -0.3,0 -0.4,-0.2 -0.4,-0.5 z"
   id="path21" />
	<path
   class="st2"
   d="m 281.8,109.3 c 0,-0.2 0.2,-0.4 0.4,-0.4 h 8.5 c 0.2,0 0.4,0.2 0.4,0.4 v 1.2 c 0,0.2 -0.2,0.4 -0.4,0.4 H 284 v 4.3 h 5.6 c 0.2,0 0.4,0.2 0.4,0.4 v 1.2 c 0,0.2 -0.2,0.4 -0.4,0.4 H 284 v 4.5 h 6.7 c 0.2,0 0.4,0.2 0.4,0.4 v 1.2 c 0,0.2 -0.2,0.4 -0.4,0.4 h -8.5 c -0.2,0 -0.4,-0.2 -0.4,-0.4 z"
   id="path22" />
	<path
   class="st2"
   d="m 295.9,109.1 c 0,-0.2 0.2,-0.4 0.4,-0.4 h 0.5 l 9.2,10.6 v 0 -10 c 0,-0.2 0.2,-0.4 0.4,-0.4 h 1.4 c 0.2,0 0.4,0.2 0.4,0.4 v 14.2 c 0,0.2 -0.2,0.4 -0.4,0.4 h -0.5 L 298.1,113 v 0 10.3 c 0,0.2 -0.2,0.4 -0.4,0.4 h -1.3 c -0.2,0 -0.4,-0.2 -0.4,-0.4 v -14.2 z"
   id="path23" />
	<path
   class="st2"
   d="m 316,110.9 h -3.4 c -0.2,0 -0.4,-0.2 -0.4,-0.4 v -1.2 c 0,-0.2 0.2,-0.4 0.4,-0.4 h 9.1 c 0.2,0 0.4,0.2 0.4,0.4 v 1.2 c 0,0.2 -0.2,0.4 -0.4,0.4 h -3.4 v 12.4 c 0,0.2 -0.2,0.4 -0.4,0.4 h -1.4 c -0.2,0 -0.4,-0.2 -0.4,-0.4 v -12.4 z"
   id="path24" />
</g><g
         id="g31">
	<path
   class="st2"
   d="m 161.3,64.9 c 0,-0.2 0.2,-0.4 0.4,-0.4 h 4.8 c 2.6,0 4.7,2.1 4.7,4.7 0,2.6 -2.1,4.8 -4.7,4.8 h -3.1 v 5 c 0,0.2 -0.2,0.4 -0.4,0.4 h -1.4 c -0.2,0 -0.4,-0.2 -0.4,-0.4 V 64.9 Z m 5.1,7 c 1.5,0 2.7,-1.2 2.7,-2.7 0,-1.4 -1.2,-2.5 -2.7,-2.5 h -2.9 v 5.2 z"
   id="path25" />
	<path
   class="st2"
   d="m 175.5,64.9 c 0,-0.2 0.2,-0.4 0.4,-0.4 h 5.7 c 2.5,0 4.6,2 4.6,4.5 0,1.9 -1.3,3.6 -3.1,4.3 l 2.9,5.4 c 0.1,0.3 0,0.6 -0.4,0.6 H 184 c -0.2,0 -0.3,-0.1 -0.3,-0.2 l -2.8,-5.6 h -3.2 v 5.4 c 0,0.2 -0.2,0.4 -0.4,0.4 H 176 c -0.2,0 -0.4,-0.2 -0.4,-0.4 v -14 z m 6,6.8 c 1.4,0 2.6,-1.2 2.6,-2.6 0,-1.4 -1.2,-2.5 -2.6,-2.5 h -3.8 v 5.1 z"
   id="path26" />
	<path
   class="st2"
   d="m 197.8,64.3 c 4.2,0 7.6,3.4 7.6,7.6 0,4.2 -3.4,7.6 -7.6,7.6 -4.2,0 -7.6,-3.4 -7.6,-7.6 0,-4.2 3.4,-7.6 7.6,-7.6 z m 0,13.1 c 3,0 5.5,-2.5 5.5,-5.5 0,-3 -2.5,-5.5 -5.5,-5.5 -3,0 -5.5,2.5 -5.5,5.5 0,3.1 2.5,5.5 5.5,5.5 z"
   id="path27" />
	<path
   class="st2"
   d="m 210.1,64.9 c 0,-0.2 0.2,-0.4 0.4,-0.4 h 4.9 c 4.1,0 7.4,3.3 7.4,7.4 0,4.1 -3.3,7.4 -7.4,7.4 h -4.9 c -0.2,0 -0.4,-0.2 -0.4,-0.4 z m 4.9,12.4 c 3.1,0 5.4,-2.3 5.4,-5.4 0,-3.1 -2.3,-5.4 -5.4,-5.4 h -2.8 v 10.8 z"
   id="path28" />
	<path
   class="st2"
   d="m 227.3,64.9 c 0,-0.2 0.2,-0.4 0.4,-0.4 h 1.4 c 0.2,0 0.4,0.2 0.4,0.4 v 8.7 c 0,2.1 1.4,3.8 3.5,3.8 2.2,0 3.5,-1.6 3.5,-3.7 v -8.8 c 0,-0.2 0.2,-0.4 0.4,-0.4 h 1.4 c 0.2,0 0.4,0.2 0.4,0.4 v 8.9 c 0,3.2 -2.4,5.7 -5.8,5.7 -3.3,0 -5.7,-2.5 -5.7,-5.7 v -8.9 z"
   id="path29" />
	<path
   class="st2"
   d="m 250.9,64.3 c 2.1,0 3.7,0.7 5.1,2 0.2,0.2 0.2,0.4 0,0.6 l -0.9,1 c -0.1,0.2 -0.3,0.2 -0.5,0 -1,-0.9 -2.3,-1.4 -3.7,-1.4 -3,0 -5.3,2.5 -5.3,5.5 0,3 2.3,5.5 5.3,5.5 1.5,0 2.6,-0.6 3.6,-1.4 0.2,-0.1 0.4,-0.1 0.5,0 l 1,1 c 0.2,0.1 0.1,0.4 0,0.6 -1.4,1.4 -3.3,2 -5.1,2 -4.2,0 -7.6,-3.4 -7.6,-7.6 0,-4.4 3.4,-7.8 7.6,-7.8 z"
   id="path30" />
	<path
   class="st2"
   d="m 262.8,66.5 h -3.4 c -0.2,0 -0.4,-0.2 -0.4,-0.4 v -1.2 c 0,-0.2 0.2,-0.4 0.4,-0.4 h 9.1 c 0.2,0 0.4,0.2 0.4,0.4 v 1.2 c 0,0.2 -0.2,0.4 -0.4,0.4 H 265 v 12.4 c 0,0.2 -0.2,0.4 -0.4,0.4 h -1.4 c -0.2,0 -0.4,-0.2 -0.4,-0.4 z"
   id="path31" />
</g></g></g><style
     type="text/css"
     id="style1">
	.st0{fill:none;}
	.st1{fill:url(#SVGID_1_);}
	.st2{fill:#181716;}
</style></svg>
